<svg xmlns="http://www.w3.org/2000/svg" xmlns:xlink="http://www.w3.org/1999/xlink" width="500" zoomAndPan="magnify" viewBox="0 0 375 374.999991" height="500" preserveAspectRatio="xMidYMid meet" version="1.2"><defs><clipPath id="66fc2b21db"><path d="M 187.5 0 C 83.945312 0 0 83.945312 0 187.5 C 0 291.054688 83.945312 375 187.5 375 C 291.054688 375 375 291.054688 375 187.5 C 375 83.945312 291.054688 0 187.5 0 Z M 187.5 0 "/></clipPath><clipPath id="1afb3801d2"><path d="M 187.5 0 C 83.945312 0 0 83.945312 0 187.5 C 0 291.054688 83.945312 375 187.5 375 C 291.054688 375 375 291.054688 375 187.5 C 375 83.945312 291.054688 0 187.5 0 Z M 187.5 0 "/></clipPath><clipPath id="5c6e99fa1e"><rect x="0" width="375" y="0" height="375"/></clipPath><clipPath id="d13df993b2"><path d="M 167 170 L 326.945312 170 L 326.945312 257 L 167 257 Z M 167 170 "/></clipPath></defs><g id="a5c0ca76b7"><g clip-rule="nonzero" clip-path="url(#66fc2b21db)"><g transform="matrix(1,0,0,1,0,0)"><g clip-path="url(#5c6e99fa1e)"><g clip-rule="nonzero" clip-path="url(#1afb3801d2)"><rect x="0" width="375" height="375" y="0" style="fill:#1a9fd9;fill-opacity:1;stroke:none;"/></g></g></g></g><path style=" stroke:none;fill-rule:nonzero;fill:#ffffff;fill-opacity:1;" d="M 133.792969 253.183594 C 128.574219 274.726562 106.878906 287.957031 85.339844 282.734375 C 63.800781 277.515625 50.566406 255.824219 55.785156 234.285156 C 61.003906 212.746094 82.699219 199.515625 104.238281 204.734375 C 125.777344 209.953125 139.011719 231.644531 133.792969 253.183594 M 112.96875 248.140625 C 115.398438 238.101562 109.234375 227.992188 99.191406 225.558594 C 89.152344 223.125 79.042969 229.292969 76.609375 239.332031 C 74.179688 249.367188 80.34375 259.480469 90.386719 261.910156 C 100.425781 264.34375 110.535156 258.175781 112.96875 248.140625 Z M 112.96875 248.140625 "/><path style=" stroke:none;fill-rule:nonzero;fill:#ffffff;fill-opacity:1;" d="M 128.421875 140.894531 L 204.433594 183.761719 C 209.585938 186.667969 211.410156 193.203125 208.503906 198.359375 C 205.597656 203.511719 199.0625 205.332031 193.90625 202.425781 L 117.894531 159.558594 C 112.742188 156.652344 110.921875 150.117188 113.828125 144.964844 C 116.734375 139.808594 123.269531 137.988281 128.421875 140.894531 Z M 128.421875 140.894531 "/><g clip-rule="nonzero" clip-path="url(#d13df993b2)"><path style=" stroke:none;fill-rule:nonzero;fill:#ffffff;fill-opacity:1;" d="M 180.21875 170.738281 L 327 249.191406 C 326.433594 253.78125 324.339844 256.246094 320.710938 256.585938 C 316.238281 257.453125 308.476562 256.464844 297.421875 253.625 C 263.589844 244.300781 229.875 231.5 196.273438 215.222656 C 179.132812 206.363281 169.757812 198.804688 168.140625 192.546875 L 167.511719 189.453125 C 167.417969 187.449219 167.8125 185.527344 168.695312 183.6875 C 169.699219 180.875 173.539062 176.558594 180.21875 170.738281 "/></g><path style=" stroke:none;fill-rule:nonzero;fill:#ffffff;fill-opacity:1;" d="M 119.113281 219.484375 L 193.855469 174.433594 C 198.921875 171.378906 205.507812 173.011719 208.5625 178.078125 C 211.617188 183.144531 209.984375 189.730469 204.917969 192.785156 L 130.175781 237.835938 C 125.109375 240.890625 118.523438 239.257812 115.46875 234.191406 C 112.414062 229.121094 114.046875 222.539062 119.113281 219.484375 Z M 119.113281 219.484375 "/><path style=" stroke:none;fill-rule:nonzero;fill:#ffffff;fill-opacity:1;" d="M 181.089844 206.503906 L 325.539062 123.839844 C 325.371094 119.488281 322.839844 117.039062 317.949219 116.496094 C 313.222656 116.113281 305.898438 117.355469 295.988281 120.21875 C 262.296875 130.558594 228.917969 144.34375 195.847656 161.574219 C 178.972656 170.925781 169.816406 178.753906 168.382812 185.054688 L 167.84375 188.164062 C 167.808594 190.171875 168.257812 192.082031 169.195312 193.894531 C 170.277344 196.675781 174.242188 200.878906 181.089844 206.503906 "/><path style=" stroke:none;fill-rule:nonzero;fill:#ffffff;fill-opacity:1;" d="M 131.144531 140.726562 C 125.921875 162.265625 104.230469 175.496094 82.691406 170.277344 C 61.148438 165.058594 47.917969 143.367188 53.136719 121.824219 C 58.355469 100.285156 80.050781 87.054688 101.589844 92.273438 C 123.128906 97.492188 136.363281 119.183594 131.144531 140.726562 M 110.316406 135.679688 C 112.75 125.640625 106.582031 115.53125 96.542969 113.097656 C 86.503906 110.667969 76.394531 116.832031 73.960938 126.871094 C 71.527344 136.910156 77.695312 147.019531 87.734375 149.453125 C 97.777344 151.886719 107.886719 145.71875 110.316406 135.679688 Z M 110.316406 135.679688 "/></g></svg>